<svg width="150" height="150" viewBox="0 0 150 150" fill="none" xmlns="http://www.w3.org/2000/svg">
<path d="M53.181 66.7181C53.181 67.9487 53.314 68.9465 53.5469 69.6782C53.8129 70.4099 54.1455 71.2081 54.6111 72.0728C54.7774 72.3389 54.844 72.605 54.844 72.8378C54.844 73.1704 54.6444 73.503 54.212 73.8355L52.1167 75.2324C51.8174 75.432 51.5181 75.5317 51.252 75.5317C50.9194 75.5317 50.5868 75.3655 50.2542 75.0661C49.7886 74.5672 49.3895 74.0351 49.0569 73.503C48.7243 72.9375 48.3917 72.3056 48.0259 71.5407C45.4317 74.6005 42.1723 76.1304 38.2477 76.1304C35.454 76.1304 33.2256 75.3322 31.5959 73.7358C29.9662 72.1393 29.1348 70.0108 29.1348 67.35C29.1348 64.523 30.1325 62.2282 32.1613 60.4987C34.1901 58.7692 36.8841 57.9045 40.3098 57.9045C41.4406 57.9045 42.6046 58.0043 43.8352 58.1706C45.0658 58.3369 46.3297 58.6029 47.66 58.9023V56.4743C47.66 53.9467 47.1279 52.1839 46.0968 51.1529C45.0326 50.1219 43.2366 49.623 40.6756 49.623C39.5116 49.623 38.3142 49.756 37.0837 50.0554C35.8531 50.3547 34.6558 50.7205 33.4917 51.1862C32.9595 51.419 32.5604 51.552 32.3276 51.6185C32.0948 51.6851 31.9285 51.7183 31.7955 51.7183C31.3299 51.7183 31.097 51.3857 31.097 50.6873V49.0576C31.097 48.5255 31.1636 48.1263 31.3299 47.8935C31.4962 47.6607 31.7955 47.4279 32.2611 47.1951C33.4252 46.5964 34.822 46.0975 36.4517 45.6984C38.0814 45.2661 39.8109 45.0665 41.6401 45.0665C45.598 45.0665 48.4915 45.9645 50.354 47.7605C52.1832 49.5565 53.1145 52.2837 53.1145 55.9422V66.7181H53.181ZM39.6779 71.7735C40.7754 71.7735 41.9062 71.5739 43.1035 71.1748C44.3009 70.7757 45.3651 70.044 46.2631 69.0462C46.7953 68.4143 47.1944 67.7159 47.3939 66.9177C47.5935 66.1195 47.7265 65.1549 47.7265 64.0241V62.6273C46.762 62.3944 45.731 62.1949 44.6667 62.0619C43.6024 61.9288 42.5714 61.8623 41.5404 61.8623C39.312 61.8623 37.6823 62.2947 36.5848 63.1927C35.4872 64.0907 34.9551 65.3545 34.9551 67.0174C34.9551 68.5806 35.3542 69.7447 36.1857 70.5429C36.9839 71.3744 38.1479 71.7735 39.6779 71.7735V71.7735ZM66.3848 75.3655C65.7862 75.3655 65.387 75.2657 65.121 75.0329C64.8549 74.8333 64.6221 74.3677 64.4225 73.7358L56.6067 48.0266C56.4071 47.3614 56.3073 46.929 56.3073 46.6962C56.3073 46.1641 56.5734 45.8647 57.1056 45.8647H60.3649C60.9969 45.8647 61.4292 45.9645 61.662 46.1973C61.9281 46.3969 62.1277 46.8625 62.3272 47.4944L67.9147 69.5119L73.1031 47.4944C73.2694 46.8292 73.469 46.3969 73.735 46.1973C74.0011 45.9978 74.4667 45.8647 75.0654 45.8647H77.7261C78.358 45.8647 78.7904 45.9645 79.0565 46.1973C79.3226 46.3969 79.5554 46.8625 79.6884 47.4944L84.9433 69.7779L90.6971 47.4944C90.8967 46.8292 91.1295 46.3969 91.3623 46.1973C91.6284 45.9978 92.0607 45.8647 92.6594 45.8647H95.7525C96.2846 45.8647 96.584 46.1308 96.584 46.6962C96.584 46.8625 96.5507 47.0288 96.5174 47.2284C96.4842 47.4279 96.4177 47.694 96.2846 48.0598L88.2692 73.769C88.0697 74.4342 87.8369 74.8666 87.5708 75.0661C87.3047 75.2657 86.8723 75.3987 86.3069 75.3987H83.4467C82.8147 75.3987 82.3824 75.2989 82.1163 75.0661C81.8502 74.8333 81.6174 74.4009 81.4844 73.7358L76.3292 52.2837L71.2074 73.7025C71.0411 74.3677 70.8415 74.8001 70.5754 75.0329C70.3094 75.2657 69.8437 75.3655 69.2451 75.3655H66.3848ZM109.123 76.2634C107.393 76.2634 105.664 76.0639 104.001 75.6648C102.338 75.2657 101.041 74.8333 100.176 74.3344C99.6438 74.0351 99.2779 73.7025 99.1449 73.4032C99.0119 73.1038 98.9454 72.7713 98.9454 72.4719V70.7757C98.9454 70.0773 99.2114 69.7447 99.7103 69.7447C99.9099 69.7447 100.109 69.7779 100.309 69.8445C100.509 69.911 100.808 70.044 101.14 70.1771C102.271 70.6759 103.502 71.075 104.799 71.3411C106.129 71.6072 107.426 71.7402 108.757 71.7402C110.852 71.7402 112.482 71.3744 113.613 70.6427C114.743 69.911 115.342 68.8467 115.342 67.4831C115.342 66.5518 115.043 65.7869 114.444 65.1549C113.845 64.523 112.715 63.9576 111.085 63.4255L106.262 61.9288C103.834 61.1639 102.038 60.0331 100.941 58.5364C99.8433 57.073 99.2779 55.4433 99.2779 53.7139C99.2779 52.317 99.5773 51.0864 100.176 50.0221C100.775 48.9578 101.573 48.0266 102.571 47.2949C103.568 46.5299 104.699 45.9645 106.03 45.5654C107.36 45.1663 108.757 45 110.22 45C110.952 45 111.717 45.0333 112.448 45.133C113.213 45.2328 113.912 45.3658 114.61 45.4989C115.276 45.6652 115.907 45.8315 116.506 46.031C117.105 46.2306 117.57 46.4301 117.903 46.6297C118.369 46.8958 118.701 47.1618 118.901 47.4612C119.1 47.7272 119.2 48.0931 119.2 48.5587V50.1219C119.2 50.8203 118.934 51.1862 118.435 51.1862C118.169 51.1862 117.737 51.0531 117.171 50.7871C115.276 49.9223 113.147 49.49 110.786 49.49C108.89 49.49 107.393 49.7893 106.362 50.4212C105.331 51.0531 104.799 52.0176 104.799 53.3813C104.799 54.3125 105.132 55.1107 105.797 55.7427C106.462 56.3746 107.692 57.0065 109.455 57.5719L114.178 59.0686C116.573 59.8335 118.302 60.8978 119.333 62.2614C120.364 63.625 120.863 65.1882 120.863 66.9177C120.863 68.3478 120.564 69.6449 119.998 70.7757C119.4 71.9065 118.601 72.9043 117.57 73.7025C116.539 74.534 115.309 75.1326 113.879 75.565C112.382 76.0306 110.819 76.2634 109.123 76.2634V76.2634Z" fill="white"/>
<path fill-rule="evenodd" clip-rule="evenodd" d="M115.408 92.4273C104.466 100.509 88.5685 104.8 74.8991 104.8C55.7419 104.8 38.4805 97.7155 25.443 85.9418C24.412 85.0106 25.3432 83.7467 26.5738 84.4784C40.6756 92.6601 58.07 97.6157 76.0631 97.6157C88.2026 97.6157 101.539 95.088 113.812 89.8996C115.641 89.0682 117.204 91.097 115.408 92.4273V92.4273Z" fill="#FF9900"/>
<path fill-rule="evenodd" clip-rule="evenodd" d="M119.965 87.2389C118.568 85.4429 110.719 86.3742 107.16 86.8066C106.096 86.9396 105.93 86.0083 106.894 85.3099C113.147 80.9197 123.424 82.1836 124.621 83.647C125.819 85.1436 124.289 95.4206 118.435 100.343C117.537 101.108 116.672 100.709 117.071 99.711C118.402 96.4184 121.362 89.0017 119.965 87.2389V87.2389Z" fill="#FF9900"/>
</svg>
