<svg width="151" height="150" viewBox="0 0 151 150" fill="none" xmlns="http://www.w3.org/2000/svg">
<path d="M117.759 55.43C117.758 53.8326 117.416 52.4211 116.725 51.2097C116.047 50.0184 115.031 49.02 113.667 48.2306C102.415 41.7422 91.151 35.2737 79.9019 28.7787C76.8692 27.0279 73.9288 27.0917 70.9186 28.8676C66.4396 31.5091 44.0152 44.3565 37.333 48.2269C34.5811 49.82 33.242 52.2581 33.2414 55.427C33.2371 68.4755 33.2414 81.5237 33.2371 94.5726C33.2377 96.1349 33.5648 97.5189 34.2252 98.7122C34.9042 99.9395 35.9347 100.965 37.3294 101.773C44.0119 105.643 66.4393 118.49 70.9172 121.132C73.9288 122.909 76.8692 122.972 79.9029 121.221C91.1523 114.725 102.417 108.257 113.671 101.769C115.066 100.962 116.096 99.9352 116.775 98.7089C117.435 97.5156 117.762 96.1316 117.763 94.5689C117.763 94.5689 117.763 68.4788 117.759 55.43" fill="#5C8DBC"/>
<path d="M75.6293 74.8727L34.2252 98.7123C34.9042 99.9396 35.9347 100.965 37.3294 101.773C44.0119 105.643 66.4393 118.49 70.9172 121.132C73.9288 122.909 76.8692 122.972 79.9029 121.221C91.1523 114.725 102.417 108.257 113.671 101.769C115.066 100.962 116.096 99.9352 116.775 98.7089L75.6293 74.8727" fill="#1A4674"/>
<path d="M63.3658 81.9341C65.7751 86.1402 70.3043 88.9771 75.4999 88.9771C80.7276 88.9771 85.2826 86.1041 87.6797 81.8531L75.6292 74.8727L63.3658 81.9341" fill="#1A4674"/>
<path d="M117.759 55.43C117.758 53.8327 117.416 52.4211 116.726 51.2097L75.6294 74.8727L116.775 98.709C117.435 97.5158 117.762 96.1317 117.763 94.5691C117.763 94.5691 117.763 68.4789 117.759 55.43" fill="#1B598E"/>
<path d="M87.6797 81.8531C85.2827 86.1042 80.7277 88.9772 75.5 88.9772C70.3044 88.9772 65.7752 86.1403 63.3659 81.9342C62.1556 79.8236 61.52 77.4326 61.5225 74.9996C61.5225 67.2803 67.7807 61.0225 75.5 61.0225C80.6622 61.0225 85.1676 63.824 87.5888 67.9871L99.8059 60.952C94.9499 52.5696 85.8839 46.9302 75.5 46.9302C59.9972 46.9302 47.4302 59.4975 47.4302 74.9996C47.4302 80.0854 48.7831 84.8547 51.1478 88.9686C55.9915 97.3953 65.0833 103.069 75.5 103.069C85.9358 103.069 95.0419 97.3725 99.8786 88.9209L87.6797 81.8531Z" fill="white"/>
</svg>
