<svg width="150" height="150" viewBox="0 0 150 150" fill="none" xmlns="http://www.w3.org/2000/svg">
<path d="M114.679 30L107.449 110.991L74.9514 120L42.5433 111.003L35.3213 30H114.679Z" fill="#264DE4"/>
<path d="M101.26 105.833L107.438 36.6232H75V113.114L101.26 105.833Z" fill="#2965F1"/>
<path d="M51.8776 66.6662L52.768 76.6008H75V66.6662H51.8776Z" fill="#EBEBEB"/>
<path d="M75.0001 46.5579H74.9657H50.0885L50.9916 56.4928H75.0001V46.5579Z" fill="#EBEBEB"/>
<path d="M75 102.804V92.4675L74.9565 92.4791L63.8921 89.4915L63.1848 81.5681H57.8084H53.2119L54.6038 97.167L74.9543 102.816L75 102.804Z" fill="#EBEBEB"/>
<path d="M87.1992 76.6007L86.046 89.4852L74.9657 92.4759V102.812L95.3324 97.1671L95.4818 95.4887L97.8164 69.3338L98.0588 66.666L99.8523 46.5579H74.9657V56.4928H88.9647L88.0607 66.666H74.9657V76.6007H87.1992Z" fill="white"/>
</svg>
