<svg width="150" height="150" viewBox="0 0 150 150" fill="none" xmlns="http://www.w3.org/2000/svg">
<path d="M123.114 70.5444L79.4531 26.8858C76.9402 24.3714 72.8621 24.3714 70.3461 26.8858L61.2797 35.9522L72.7809 47.4534C75.4535 46.5503 78.5184 47.1562 80.6488 49.2866C82.7894 51.4308 83.391 54.5218 82.466 57.203L93.55 68.2874C96.2316 67.3636 99.3258 67.9612 101.468 70.1065C104.461 73.0987 104.461 77.9483 101.468 80.9425C98.4734 83.937 93.6238 83.937 90.6281 80.9425C88.3766 78.6886 87.8203 75.3819 88.9602 72.6081L78.6234 62.2714L78.6223 89.4733C79.3716 89.8438 80.056 90.3332 80.6488 90.9226C83.6422 93.9147 83.6422 98.7647 80.6488 101.761C77.6547 104.754 72.8027 104.754 69.8129 101.761C66.8195 98.7647 66.8195 93.9151 69.8129 90.923C70.5302 90.2053 71.3827 89.6369 72.3211 89.2507V61.7952C71.3814 61.4116 70.5284 60.8429 69.8129 60.1229C67.5449 57.8581 66.9996 54.5304 68.1617 51.7456L56.8242 40.4069L26.8867 70.3425C24.3711 72.8593 24.3711 76.9378 26.8867 79.4526L70.5484 123.112C73.0621 125.627 77.1394 125.627 79.6562 123.112L123.114 79.6554C125.629 77.1397 125.629 73.0589 123.114 70.5444" fill="#DE4C36"/>
</svg>
