<svg width="150" height="150" viewBox="0 0 150 150" fill="none" xmlns="http://www.w3.org/2000/svg">
<ellipse cx="75" cy="75.0034" rx="45.1721" ry="44.9965" fill="white"/>
<path d="M75.0002 30C50.0554 30 29.8279 50.224 29.8279 75.1723C29.8279 95.1309 42.7711 112.063 60.7196 118.036C62.977 118.454 63.806 117.057 63.806 115.863C63.806 114.786 63.7639 111.228 63.7447 107.453C51.1774 110.186 48.5256 102.123 48.5256 102.123C46.4708 96.902 43.5101 95.5139 43.5101 95.5139C39.4118 92.7101 43.8191 92.7675 43.8191 92.7675C48.3552 93.0864 50.7438 97.4227 50.7438 97.4227C54.7726 104.329 61.3112 102.332 63.8889 101.178C64.2942 98.2581 65.4651 96.2657 66.7568 95.1376C56.7236 93.9951 46.1761 90.1218 46.1761 72.8131C46.1761 67.8816 47.9407 63.8517 50.8306 60.6883C50.3615 59.5504 48.8154 54.9561 51.2681 48.7339C51.2681 48.7339 55.0614 47.5198 63.6937 53.3643C67.2967 52.3631 71.1612 51.8615 75.0002 51.8445C78.8391 51.8615 82.7064 52.3631 86.3165 53.3643C94.9386 47.5198 98.7266 48.7339 98.7266 48.7339C101.185 54.9561 99.6385 59.5504 99.1694 60.6883C102.066 63.8517 103.818 67.8812 103.818 72.8131C103.818 90.1629 93.2508 93.9834 83.1922 95.1015C84.8123 96.5034 86.256 99.2526 86.256 103.467C86.256 109.511 86.2035 114.375 86.2035 115.863C86.2035 117.065 87.0166 118.474 89.3066 118.03C107.245 112.051 120.172 95.1242 120.172 75.1723C120.172 50.224 99.9474 30 75.0002 30Z" fill="#161614"/>
<path d="M46.7463 94.3491C46.6471 94.5733 46.2935 94.6406 45.9722 94.4869C45.6445 94.3395 45.4602 94.0334 45.5665 93.8081C45.6639 93.5771 46.0175 93.5126 46.3445 93.6678C46.6729 93.8148 46.86 94.1238 46.7463 94.3491V94.3491ZM48.9683 96.3316C48.7529 96.5314 48.3317 96.4386 48.0458 96.1229C47.7503 95.808 47.695 95.3871 47.9136 95.1841C48.1357 94.9846 48.5442 95.0778 48.8404 95.3931C49.1359 95.7116 49.1933 96.13 48.9679 96.332L48.9683 96.3316ZM50.4928 98.8682C50.2157 99.0606 49.7629 98.8803 49.4834 98.4785C49.2067 98.0771 49.2067 97.5953 49.4894 97.4022C49.77 97.2092 50.2157 97.3828 50.4991 97.7813C50.7755 98.1898 50.7755 98.6716 50.4924 98.8686L50.4928 98.8682ZM53.0705 101.806C52.8229 102.079 52.2957 102.006 51.9095 101.633C51.5149 101.269 51.4047 100.752 51.653 100.479C51.9035 100.206 52.4339 100.283 52.8229 100.652C53.215 101.016 53.3348 101.536 53.0709 101.806H53.0705ZM56.4021 102.798C56.2934 103.152 55.7853 103.313 55.2738 103.162C54.7629 103.008 54.4284 102.593 54.5315 102.236C54.6378 101.88 55.148 101.712 55.6635 101.873C56.1736 102.027 56.5088 102.438 56.4025 102.798H56.4021ZM60.1943 103.219C60.2071 103.591 59.7731 103.9 59.236 103.907C58.6957 103.919 58.2589 103.617 58.2532 103.251C58.2532 102.875 58.6773 102.569 59.2172 102.56C59.7543 102.549 60.1943 102.849 60.1943 103.219V103.219ZM63.9192 103.076C63.9837 103.44 63.6103 103.813 63.0771 103.912C62.5528 104.008 62.0674 103.784 62.0005 103.423C61.9353 103.051 62.3158 102.677 62.839 102.581C63.3733 102.488 63.8512 102.707 63.9192 103.076" fill="#161614"/>
</svg>
