<svg width="150" height="150" viewBox="0 0 150 150" fill="none" xmlns="http://www.w3.org/2000/svg">
<path d="M112.5 32.5H37.5C34.7386 32.5 32.5 34.7386 32.5 37.5V112.5C32.5 115.261 34.7386 117.5 37.5 117.5H112.5C115.261 117.5 117.5 115.261 117.5 112.5V37.5C117.5 34.7386 115.261 32.5 112.5 32.5Z" fill="#F7DF1E"/>
<path d="M86.2968 100.825C88.1325 99.7583 90.3922 100.471 92.008 101.848C93.3925 103.028 95.1315 103.757 97.4778 103.757C100.787 103.757 102.902 102.103 102.902 99.8173C102.902 97.0785 100.729 96.1084 97.0865 94.515L95.0897 93.6582C89.3259 91.2027 85.4968 88.1265 85.4968 81.6233C85.4968 75.6328 90.0612 71.0725 97.1944 71.0725C101.074 71.0725 104.121 72.104 106.516 74.6544C107.852 76.0776 107.268 78.294 105.625 79.3489V79.3489C103.842 80.4938 101.61 79.6056 99.7409 78.608C99.0041 78.2148 98.1737 78.0385 97.1944 78.0385C94.8549 78.0385 93.3721 79.5226 93.3721 81.4614C93.3721 83.8576 94.8563 84.8277 98.2832 86.3118L100.28 87.1672C107.067 90.0774 110.898 93.0443 110.898 99.7148C110.898 106.906 105.249 110.846 97.6626 110.846C91.9857 110.846 87.8465 108.775 85.1652 105.727C83.7976 104.172 84.5063 101.865 86.2968 100.825V100.825ZM57.9135 101.699C59.8116 100.55 62.0304 101.476 63.7897 102.828C64.5033 103.376 65.3722 103.707 66.5229 103.707C69.1471 103.707 70.8026 102.68 70.8026 98.6881V75.5222C70.8026 73.3166 72.5906 71.5285 74.7963 71.5285V71.5285C77.0019 71.5285 78.7899 73.3166 78.7899 75.5222V98.796C78.7899 107.067 73.9409 110.831 66.8629 110.831C62.1647 110.831 58.9192 109.045 56.7808 106.516C55.48 104.978 56.1903 102.742 57.9135 101.699V101.699Z" fill="black"/>
</svg>
