<svg width="151" height="150" viewBox="0 0 151 150" fill="none" xmlns="http://www.w3.org/2000/svg">
<path d="M84.322 88.2456L62.2495 83.6332C62.1571 83.8119 62.0542 83.9851 61.9415 84.1517L82.0355 113.464L83.2476 112.253L86.6662 90.9944C86.0884 90.7503 85.5756 90.3747 85.1686 89.8974C84.7616 89.4201 84.4717 88.8544 84.322 88.2453V88.2456ZM76.2699 59.3919C75.4431 60.6603 74.0158 61.4999 72.3902 61.4999C72.1398 61.4999 71.8966 61.4745 71.6575 61.4366L61.5914 77.1867L88.4848 65.6134C88.4763 65.5051 88.4524 65.4039 88.4524 65.2928C88.4524 65.0664 88.4834 64.847 88.5199 64.6305L76.2699 59.3923V59.3919ZM77.0012 56.5218L90.0316 62.0933C90.4468 61.7687 90.9218 61.5289 91.4294 61.3874L93.5711 48.0704L85.4118 39.9111L76.2278 54.282C76.6779 54.9479 76.9446 55.7205 77.0012 56.5222V56.5218ZM104.305 58.8041L96.1276 50.6255L94.3502 61.6672C94.8008 61.8938 95.2055 62.2018 95.544 62.5756L104.305 58.8041V58.8041ZM84.7129 85.3372C85.0329 84.7562 85.4926 84.2642 86.0505 83.9055C86.6084 83.5468 87.2469 83.3327 87.9082 83.2827L90.2566 68.6762C90.0724 68.5539 89.9079 68.4076 89.7462 68.2571L62.6981 79.8979C62.767 80.1805 62.8148 80.4688 62.8373 80.7684L84.7129 85.3372V85.3372ZM106.532 61.033L97.0712 65.104L120.415 75.0844L120.499 75L106.532 61.033ZM89.6252 91.0384L86.7818 108.716L103.292 92.2056L91.3999 89.7222C90.9438 90.319 90.3287 90.7752 89.6252 91.0384V91.0384ZM57.533 86.4935C56.9354 86.4935 56.363 86.3908 55.8272 86.209L50.343 94.7916L48.2238 92.6738L53.4184 84.5458C53.2899 84.3864 53.1702 84.2201 53.0598 84.0477L43.6493 88.0994L41.4187 85.8687L51.7193 81.4349L33.097 77.5481L30.55 75L31.3557 74.1942L52.8306 78.6773C53.0775 78.2088 53.3937 77.7802 53.7685 77.4061L43.3456 62.203L45.4507 60.0979L56.3402 75.983C56.7312 75.8921 57.1312 75.8454 57.5327 75.8437C57.9925 75.8437 58.4383 75.9084 58.8644 76.0181L69.0542 60.0739C68.2246 59.2134 67.7613 58.0645 67.7619 56.8692C67.7619 56.5035 67.8083 56.1492 67.8885 55.8089L55.1762 50.3738L57.4061 48.1435L69.4504 53.2945C70.0612 52.7911 70.7912 52.4534 71.5702 52.3138C72.3493 52.1741 73.1511 52.2373 73.8987 52.4972L83.2937 37.7933L75.5007 30L30.5007 75L75.5007 120L79.9289 115.572L59.6845 86.0375C59.007 86.3378 58.2741 86.4931 57.533 86.4935V86.4935ZM93.1211 69.3058L90.7319 84.1545C91.1495 84.4901 91.4952 84.9061 91.7486 85.378C92.0021 85.8499 92.158 86.3679 92.2071 86.9013L105.767 89.732L118.184 77.315L95.7719 67.7326C95.1306 68.5864 94.1777 69.152 93.1211 69.3062V69.3058Z" fill="#25C7B7"/>
</svg>
