<svg width="150" height="150" viewBox="0 0 150 150" fill="none" xmlns="http://www.w3.org/2000/svg">
<path d="M71.2785 26.0669C73.758 24.6476 76.9876 24.6412 79.465 26.0669C91.9286 33.1094 104.396 40.141 116.858 47.1878C119.201 48.5081 120.769 51.1166 120.745 53.8173V96.1881C120.763 99.0007 119.04 101.671 116.567 102.962C104.145 109.966 91.7285 116.978 79.308 123.982C76.7772 125.429 73.4827 125.317 71.031 123.752C67.3067 121.593 63.576 119.444 59.8513 117.287C59.0902 116.834 58.2322 116.473 57.6948 115.735C58.1699 115.094 59.0193 115.014 59.7096 114.735C61.2642 114.24 62.692 113.447 64.1202 112.677C64.4813 112.43 64.9222 112.525 65.2684 112.746C68.4531 114.572 71.6097 116.451 74.8051 118.259C75.4868 118.653 76.177 118.13 76.7597 117.806C88.9501 110.916 101.156 104.052 113.344 97.1601C113.795 96.9428 114.045 96.4634 114.008 95.9688C114.017 81.9915 114.011 68.0118 114.013 54.0345C114.064 53.4732 113.739 52.9572 113.232 52.7274C100.852 45.7557 88.4793 38.7733 76.1019 31.7999C75.8874 31.6524 75.6334 31.5733 75.3732 31.5729C75.1129 31.5726 74.8587 31.6509 74.6438 31.7977C62.2664 38.7733 49.8954 45.7622 37.518 52.7335C37.0123 52.9636 36.6728 53.4711 36.733 54.0345C36.7352 68.0118 36.733 81.9915 36.733 95.9709C36.7116 96.2123 36.7646 96.4544 36.8849 96.6647C37.0053 96.8751 37.1872 97.0435 37.4062 97.1473C40.7091 99.0203 44.0164 100.88 47.3215 102.747C49.1834 103.749 51.4696 104.344 53.521 103.577C55.3314 102.927 56.6003 101.08 56.5658 99.1577C56.5829 85.2621 56.5573 71.3642 56.5786 57.4707C56.5334 56.8538 57.1185 56.3442 57.7183 56.4022C59.3053 56.3915 60.8945 56.3809 62.4815 56.4065C63.144 56.3916 63.5998 57.0558 63.5179 57.6773C63.5115 71.6609 63.535 85.6449 63.5072 99.6286C63.5115 103.355 61.9804 107.411 58.5332 109.234C54.2864 111.434 49.0374 110.967 44.8419 108.858C41.2099 107.045 37.7438 104.906 34.1762 102.964C31.697 101.68 29.9829 98.9989 30.0003 96.1885V53.8173C29.9743 51.0606 31.6044 48.4048 34.0213 47.1038C46.4418 40.0943 58.8601 33.0795 71.2785 26.0669Z" fill="#8CC84B"/>
<path d="M82.1141 55.4174C87.5312 55.0687 93.3304 55.2108 98.2051 57.8795C101.979 59.9245 104.072 64.2165 104.138 68.4095C104.033 68.9751 103.442 69.2871 102.902 69.2483C101.33 69.2461 99.7579 69.2696 98.1862 69.2376C97.5195 69.2632 97.132 68.6485 97.0483 68.0591C96.5967 66.0529 95.5026 64.0659 93.6143 63.0982C90.7156 61.6469 87.3545 61.7199 84.1937 61.7502C81.8862 61.8727 79.4048 62.0725 77.4499 63.4294C75.9491 64.4573 75.4932 66.5322 76.0289 68.2033C76.5339 69.4032 77.919 69.7903 79.0522 70.1472C85.5805 71.8546 92.4985 71.6847 98.9021 73.9317C101.553 74.8477 104.147 76.6285 105.054 79.4043C106.241 83.1247 105.721 87.5717 103.074 90.5584C100.928 93.0162 97.8012 94.3539 94.6831 95.0804C90.535 96.0054 86.2302 96.0289 82.0176 95.6182C78.0564 95.1666 73.9343 94.126 70.8764 91.427C68.2615 89.1565 66.9843 85.6189 67.1111 82.2044C67.1414 81.6278 67.7155 81.2257 68.2679 81.2731C69.8507 81.2603 71.4334 81.256 73.0162 81.2752C73.6483 81.23 74.117 81.7763 74.1494 82.3722C74.4415 84.2837 75.1598 86.2899 76.8266 87.4231C80.0434 89.4984 84.0797 89.3563 87.7631 89.4144C90.8146 89.2791 94.2401 89.2381 96.7303 87.2212C98.0441 86.0708 98.4334 84.1462 98.0783 82.4904C97.6937 81.0925 96.2313 80.4411 94.9755 80.0151C88.5309 77.9765 81.5357 78.7163 75.1534 76.4109C72.5624 75.4952 70.0569 73.7639 69.0614 71.1021C67.6724 67.3347 68.3089 62.6747 71.2333 59.7888C74.0846 56.9182 78.2007 55.8127 82.1141 55.4171V55.4174Z" fill="#8CC84B"/>
</svg>
